<?xml version="1.0" encoding="utf-8"?>
<!-- Generator: Adobe Illustrator 20.1.0, SVG Export Plug-In . SVG Version: 6.00 Build 0)  -->
<svg version="1.1" id="Layer_1" xmlns="http://www.w3.org/2000/svg" xmlns:xlink="http://www.w3.org/1999/xlink" x="0px" y="0px"
	 width="120.4px" height="19.3px" viewBox="0 0 120.4 19.3" style="enable-background:new 0 0 120.4 19.3;" xml:space="preserve">
<style type="text/css">
	.st0{fill:#FFFFFF;}
</style>
<g>
	<g>
		<polygon class="st0" points="0,0 0,5.1 7.1,12.2 14.2,19.3 19.3,19.3 9.7,9.7 		"/>
		<polygon class="st0" points="0,12.3 0,19.3 7.1,19.3 3.5,15.8 		"/>
		<polygon class="st0" points="7.1,0 12.4,5.3 17.8,0 12.4,0 		"/>
	</g>
	<path class="st0" d="M33.2,8.7l4.5-5.2h3l-5.2,5.7l5.5,6.6h-3.2l-4.4-5.5l-0.3,0.3v5.2h-2.4V3.5h2.4V8.7z"/>
	<path class="st0" d="M44.3,9.7c0-3.6,2.9-6.5,6.6-6.5c3.7,0,6.6,2.8,6.6,6.4s-2.9,6.4-6.6,6.4C47.2,16.1,44.3,13.3,44.3,9.7z
		 M46.8,9.7c0,2.3,1.8,4.3,4.1,4.3c2.3,0,4.1-1.9,4.1-4.3c0-2.3-1.8-4.2-4.1-4.2C48.6,5.4,46.8,7.3,46.8,9.7z"/>
	<path class="st0" d="M62.6,15.8V3.3h1.7l7.5,8.6V3.5h2.4v12.6h-1.7L65,7.5v8.3H62.6z"/>
	<path class="st0" d="M85.3,10.6l3.9,5.2h-3l-3.3-4.9h-0.3v4.9h-2.4V3.5h3.6c1.3,0,2.4,0.3,3.1,0.9c0.8,0.6,1.2,1.7,1.2,2.8
		c0,1.3-0.5,2.4-1.4,3C86.2,10.4,85.9,10.5,85.3,10.6z M82.6,9.2h0.7c1.5,0,2.4-0.6,2.4-1.9s-0.8-1.8-2.3-1.8h-0.7V9.2z"/>
	<path class="st0" d="M102,13.4h-5L95.8,16h-2.5l5.3-12.6h1.8l5.2,12.6H103L102,13.4z M101.3,11.4L99.5,7l-1.8,4.4H101.3z"/>
	<path class="st0" d="M110.3,15.8V3.5h3.5c3.9,0,6.6,2.5,6.6,6.1c0,1.8-0.8,3.6-2.2,4.8c-1.2,1-2.5,1.4-4.4,1.4H110.3z M112.7,13.7
		h0.6c1.6,0,2.5-0.3,3.3-1c0.8-0.8,1.3-1.9,1.3-3.1c0-1.2-0.5-2.3-1.3-3.1c-0.8-0.7-1.7-1-3.3-1h-0.6V13.7z"/>
</g>
</svg>
